# xmcd
#
# Track frame offsets:
#	150
#	12200
#	29262
#	47217
#	62887
#	83244
#	97039
#	115939
#	131806
#	146752
#	162201
#	176744
#	193945
#	213470
#	224670
#	244261
#	262392
#	275125
#	292388
#	306154
#
# Disc length: 4250 seconds
# Revision: 0
# Processed by: cddbd v1.5.2PL0 Copyright (c) Steve Scherf et al.
# Submitted via: dBpowerAMP V12.0
#
DISCID=53109814
DTITLE=Various Artist - The LBS Country Collection
DYEAR=2016
DGENRE=Country
TTITLE0=Ashley Cook - Pubs of The Outback
TTITLE1=Shaza Leigh - Homeland
TTITLE2=John Lecner - Bless Mummy and Daddy
TTITLE3=Fletcher Morley - The Passing Of Time
TTITLE4=Lynette Guest - Travelling Home
TTITLE5=Chris Strohfeld - RM's Mirror
TTITLE6=Emma Jene - Cross Your Heart
TTITLE7=Mark Swain - The Travelling Buskerteer
TTITLE8=Peggy Gilchrist - Augusta's Love
TTITLE9=Tom Maxwell - Macquarie River
TTITLE10=Rachel Jillet - Blue Gums Calling Me Back Home
TTITLE11=Greg Bain - One Of A Kind
TTITLE12=Rachel Summerell - Stop the Merry-Go-Round 
TTITLE13=Brian Young - Tjilpi
TTITLE14=Kate Daniel - Harry Bowden Derelict
TTITLE15=Lindsay Butler - The Namoi Flows In The Moonbi Range
TTITLE16=Graham Pearson - Dear Old Doctor Mum
TTITLE17=Shaza Leigh and Rachel Jillet - If We Never Meet Again
TTITLE18=Ken Coverdale - Royal Telephone
TTITLE19=Lindsay Butler and Peggy Gilchrist - Gospel Road
EXTD=
EXTT0=
EXTT1=
EXTT2=
EXTT3=
EXTT4=
EXTT5=
EXTT6=
EXTT7=
EXTT8=
EXTT9=
EXTT10=
EXTT11=
EXTT12=
EXTT13=
EXTT14=
EXTT15=
EXTT16=
EXTT17=
EXTT18=
EXTT19=
PLAYORDER=
